<svg width="45" height="55" viewBox="0 0 45 55" fill="none" xmlns="http://www.w3.org/2000/svg">
<path d="M30.625 22.4375C30.625 24.5924 29.769 26.659 28.2452 28.1827C26.7215 29.7065 24.6549 30.5625 22.5 30.5625C20.3451 30.5625 18.2785 29.7065 16.7548 28.1827C15.231 26.659 14.375 24.5924 14.375 22.4375C14.375 20.2826 15.231 18.216 16.7548 16.6923C18.2785 15.1685 20.3451 14.3125 22.5 14.3125C24.6549 14.3125 26.7215 15.1685 28.2452 16.6923C29.769 18.216 30.625 20.2826 30.625 22.4375V22.4375Z" stroke="black" stroke-width="3" stroke-linecap="round" stroke-linejoin="round"/>
<path d="M42.8125 22.4375C42.8125 41.7804 22.5 52.9062 22.5 52.9062C22.5 52.9062 2.1875 41.7804 2.1875 22.4375C2.1875 17.0503 4.32756 11.8837 8.13689 8.07439C11.9462 4.26506 17.1128 2.125 22.5 2.125C27.8872 2.125 33.0538 4.26506 36.8631 8.07439C40.6724 11.8837 42.8125 17.0503 42.8125 22.4375V22.4375Z" stroke="black" stroke-width="4" stroke-linecap="round" stroke-linejoin="round"/>
</svg>
