<svg width="66" height="51" viewBox="0 0 66 51" fill="none" xmlns="http://www.w3.org/2000/svg">
<path d="M65 8.35V42.65C65 44.5993 64.222 46.4688 62.8371 47.8472C61.4522 49.2256 59.5739 50 57.6154 50H8.38462C6.42609 50 4.54779 49.2256 3.1629 47.8472C1.77802 46.4688 1 44.5993 1 42.65V8.35M65 8.35C65 6.40066 64.222 4.53116 62.8371 3.15277C61.4522 1.77437 59.5739 1 57.6154 1H8.38462C6.42609 1 4.54779 1.77437 3.1629 3.15277C1.77802 4.53116 1 6.40066 1 8.35M65 8.35V9.1438C65.0001 10.3987 64.6775 11.6327 64.0628 12.7283C63.448 13.8239 62.5617 14.7446 61.4882 15.4027L36.8728 30.4784C35.7084 31.1923 34.3676 31.5703 33 31.5703C31.6324 31.5703 30.2916 31.1923 29.1272 30.4784L4.51179 15.406C3.4383 14.7479 2.55198 13.8272 1.93725 12.7316C1.32252 11.636 0.99986 10.4019 1 9.14707V8.35" stroke="black" stroke-width="2" stroke-linecap="round" stroke-linejoin="round"/>
</svg>
