<svg width="52" height="53" viewBox="0 0 52 53" fill="none" xmlns="http://www.w3.org/2000/svg">
<path d="M2 13.4566C2 33.8368 18.5317 50.3594 38.9231 50.3594H44.4615C45.9304 50.3594 47.3392 49.7762 48.3778 48.7381C49.4165 47.7 50 46.2921 50 44.824V41.4486C50 40.1792 49.136 39.0721 47.9028 38.7646L37.0154 36.0436C35.9323 35.773 34.7951 36.1789 34.128 37.0695L31.7403 40.2505C31.0462 41.1755 29.8474 41.5839 28.7618 41.1854C24.732 39.7047 21.0724 37.3662 18.0364 34.3318C15.0004 31.2975 12.6606 27.6399 11.1791 23.6123C10.7803 22.5273 11.1889 21.3292 12.1145 20.6354L15.2972 18.249C16.1908 17.5823 16.5945 16.4433 16.3237 15.3632L13.6012 4.48182C13.4514 3.88325 13.1058 3.35187 12.6192 2.9721C12.1326 2.59233 11.5331 2.38595 10.9157 2.38574H7.53846C6.06957 2.38574 4.66084 2.96894 3.62218 4.00703C2.58351 5.04512 2 6.45308 2 7.92117V13.4566Z" stroke="black" stroke-width="4" stroke-linecap="round" stroke-linejoin="round"/>
</svg>
