<svg fill="#000000" xmlns="http://www.w3.org/2000/svg"  viewBox="0 0 80 80" width="80px" height="80px"><path d="M 40 7 C 21.8125 7 7 21.8125 7 40 C 7 58.1875 21.8125 73 40 73 C 58.1875 73 73 58.1875 73 40 C 73 21.8125 58.1875 7 40 7 Z M 40 9 C 48.347656 9 55.925781 12.316406 61.503906 17.699219 L 61.382813 18.578125 L 62.019531 19.203125 L 62.855469 19.078125 C 67.910156 24.59375 71 31.941406 71 40 C 71 40.648438 70.972656 41.292969 70.933594 41.933594 L 70.828125 41.871094 L 70.734375 41.832031 L 69.84375 41.921875 L 69.378906 42.6875 L 69.71875 43.519531 L 70.019531 43.703125 L 70.113281 43.734375 L 70.777344 43.671875 C 69.546875 54.050781 63.179688 62.863281 54.292969 67.5 L 53.621094 67.484375 L 53.179688 68.050781 C 49.179688 69.9375 44.710938 71 40 71 C 31.882813 71 24.488281 67.863281 18.957031 62.746094 L 18.972656 62.527344 L 18.292969 61.941406 L 18.152344 61.972656 C 12.5 56.359375 9 48.582031 9 40 C 9 22.898438 22.898438 9 40 9 Z M 29.566406 11.773438 L 28.816406 12.269531 L 28.765625 13.164063 L 28.941406 13.421875 L 28.9375 13.425781 L 28.964844 13.457031 L 29 13.5 L 29.828125 13.839844 L 30.597656 13.375 L 30.6875 12.484375 L 30.503906 12.183594 L 30.441406 12.109375 L 30.410156 12.078125 Z M 32.3125 14.886719 L 31.527344 15.316406 L 31.398438 16.203125 L 31.566406 16.511719 L 31.628906 16.589844 L 32.449219 16.964844 L 33.234375 16.53125 L 33.359375 15.644531 L 33.1875 15.335938 L 33.125 15.257813 Z M 34.84375 18.140625 L 34.042969 18.535156 L 33.882813 19.421875 L 34.039063 19.734375 L 34.097656 19.8125 L 34.902344 20.21875 L 35.703125 19.816406 L 35.859375 18.9375 L 35.703125 18.621094 L 35.644531 18.542969 Z M 60.359375 20.5625 L 59.464844 20.628906 L 59.199219 20.863281 L 59.136719 20.941406 L 58.953125 21.816406 L 59.542969 22.492188 L 60.433594 22.421875 L 60.699219 22.1875 L 60.761719 22.109375 L 60.949219 21.234375 Z M 37.21875 21.53125 L 36.390625 21.875 L 36.171875 22.742188 L 36.304688 23.066406 L 36.359375 23.152344 L 37.128906 23.609375 L 37.957031 23.265625 L 38.175781 22.394531 L 38.042969 22.074219 L 37.988281 21.988281 Z M 56.828125 23.59375 L 56.53125 23.785156 L 56.460938 23.855469 L 56.152344 24.695313 L 56.640625 25.445313 L 57.535156 25.5 L 57.832031 25.308594 L 57.90625 25.238281 L 58.214844 24.394531 L 57.722656 23.644531 Z M 39.402344 25.023438 L 38.5625 25.339844 L 38.3125 26.203125 L 38.4375 26.53125 L 38.488281 26.617188 L 39.246094 27.097656 L 40.082031 26.78125 L 40.332031 25.921875 L 40.207031 25.589844 L 40.15625 25.503906 Z M 53.800781 26.265625 L 53.542969 26.410156 L 53.539063 26.40625 L 53.496094 26.4375 L 53.464844 26.457031 L 53.050781 27.253906 L 53.445313 28.0625 L 54.324219 28.230469 L 54.640625 28.078125 L 54.71875 28.023438 L 54.738281 28.003906 L 54.765625 27.984375 L 54.769531 27.980469 L 55.132813 27.160156 L 54.691406 26.378906 Z M 50.546875 28.5625 L 50.222656 28.699219 L 50.136719 28.75 L 49.679688 29.519531 L 50.023438 30.347656 L 50.890625 30.566406 L 51.21875 30.433594 L 51.300781 30.378906 L 51.761719 29.609375 L 51.417969 28.78125 Z M 41.441406 28.617188 L 40.585938 28.886719 L 40.292969 29.734375 L 40.394531 30.066406 L 40.441406 30.15625 L 41.171875 30.679688 L 42.023438 30.410156 L 42.320313 29.566406 L 42.214844 29.230469 L 42.167969 29.140625 Z M 47.078125 30.546875 L 46.738281 30.648438 L 46.648438 30.691406 L 46.113281 31.410156 L 46.367188 32.269531 L 47.207031 32.578125 L 47.546875 32.480469 L 47.636719 32.433594 L 48.171875 31.71875 L 47.917969 30.859375 Z M 43.433594 32.234375 L 43.089844 32.300781 L 42.996094 32.339844 L 42.953125 32.386719 L 42.453125 32.53125 L 42.132813 33.367188 L 42.230469 33.703125 L 42.273438 33.796875 L 42.984375 34.339844 L 43.324219 34.242188 L 43.378906 34.269531 L 43.726563 34.199219 L 43.820313 34.164063 L 44.417969 33.496094 L 44.242188 32.617188 Z M 39.660156 33.636719 L 39.3125 33.679688 L 39.214844 33.707031 L 38.566406 34.328125 L 38.671875 35.214844 L 39.449219 35.660156 L 39.796875 35.621094 L 39.894531 35.59375 L 40.542969 34.972656 L 40.4375 34.082031 Z M 35.753906 34.769531 L 35.40625 34.796875 L 35.308594 34.824219 L 34.636719 35.421875 L 34.714844 36.3125 L 35.472656 36.785156 L 35.824219 36.753906 L 35.921875 36.730469 L 36.589844 36.136719 L 36.515625 35.242188 Z M 31.8125 35.660156 L 31.460938 35.671875 L 31.363281 35.6875 L 30.65625 36.242188 L 30.675781 37.136719 L 31.40625 37.65625 L 31.761719 37.652344 L 31.859375 37.628906 L 32.5625 37.078125 L 32.542969 36.183594 Z M 45.058594 36.023438 L 44.1875 36.230469 L 43.828125 37.050781 L 43.90625 37.394531 L 43.949219 37.484375 L 44.636719 38.0625 L 45.507813 37.855469 L 45.863281 37.03125 L 45.78125 36.691406 L 45.746094 36.597656 Z M 27.46875 36.328125 L 27.371094 36.34375 L 26.636719 36.855469 L 26.609375 37.75 L 27.308594 38.308594 L 27.660156 38.320313 L 27.761719 38.304688 L 28.496094 37.792969 L 28.519531 36.894531 L 27.824219 36.339844 Z M 23.433594 36.78125 L 23.421875 36.785156 L 23.375 36.785156 L 22.601563 37.242188 L 22.503906 38.132813 L 23.15625 38.746094 L 23.511719 38.78125 L 23.582031 38.78125 L 23.605469 38.777344 L 23.625 38.777344 L 23.652344 38.769531 L 24.402344 38.285156 L 24.464844 37.390625 L 23.78125 36.808594 L 23.449219 36.785156 L 23.449219 36.78125 Z M 11.214844 36.953125 L 10.390625 37.304688 L 10.179688 38.175781 L 10.75 38.863281 L 11.09375 38.949219 L 11.191406 38.953125 L 12.015625 38.601563 L 12.230469 37.730469 L 11.65625 37.042969 L 11.3125 36.957031 Z M 19.417969 37.03125 L 19.316406 37.035156 L 18.53125 37.464844 L 18.402344 38.347656 L 19.03125 38.984375 L 19.378906 39.035156 L 19.480469 39.03125 L 20.265625 38.609375 L 20.398438 37.71875 L 19.765625 37.085938 Z M 15.25 37.105469 L 14.449219 37.503906 L 14.292969 38.386719 L 14.902344 39.042969 L 15.25 39.105469 L 15.347656 39.105469 L 16.152344 38.703125 L 16.3125 37.824219 L 15.699219 37.167969 L 15.351563 37.105469 Z M 54.328125 38.796875 L 53.53125 39.207031 L 53.390625 40.09375 L 54.007813 40.738281 L 54.355469 40.796875 L 54.457031 40.796875 L 55.25 40.382813 L 55.398438 39.5 L 54.777344 38.851563 L 54.429688 38.796875 Z M 58.53125 38.972656 L 57.695313 39.296875 L 57.453125 40.160156 L 58.003906 40.871094 L 58.34375 40.964844 L 58.441406 40.972656 L 59.277344 40.648438 L 59.515625 39.785156 L 58.96875 39.078125 L 58.628906 38.984375 Z M 50.21875 39.0625 L 50.117188 39.078125 L 49.378906 39.589844 L 49.34375 40.484375 L 50.042969 41.046875 L 50.390625 41.0625 L 50.492188 41.046875 L 51.230469 40.539063 L 51.265625 39.640625 L 50.566406 39.078125 Z M 62.691406 39.566406 L 61.828125 39.800781 L 61.5 40.636719 L 61.96875 41.394531 L 62.296875 41.527344 L 62.394531 41.546875 L 63.261719 41.3125 L 63.589844 40.480469 L 63.117188 39.714844 L 62.789063 39.585938 Z M 46.464844 39.765625 L 46.109375 39.78125 L 46.011719 39.800781 L 45.3125 40.359375 L 45.339844 41.253906 L 46.074219 41.765625 L 46.089844 41.765625 L 46.167969 41.839844 L 47.046875 41.667969 L 47.4375 40.859375 L 47.375 40.515625 L 47.335938 40.421875 L 47.199219 40.296875 L 47.199219 40.28125 L 47.140625 40.242188 L 46.671875 39.816406 L 46.5625 39.839844 Z M 66.746094 40.53125 L 65.867188 40.703125 L 65.484375 41.515625 L 65.898438 42.308594 L 66.21875 42.457031 L 66.3125 42.484375 L 67.191406 42.3125 L 67.578125 41.5 L 67.160156 40.707031 L 66.84375 40.558594 Z M 42.398438 40.90625 L 42.050781 40.964844 L 41.957031 41 L 41.335938 41.644531 L 41.484375 42.53125 L 42.277344 42.941406 L 42.625 42.886719 L 42.71875 42.851563 L 43.339844 42.203125 L 43.195313 41.320313 Z M 38.488281 42.472656 L 38.152344 42.574219 L 38.0625 42.617188 L 37.523438 43.332031 L 37.777344 44.191406 L 38.613281 44.503906 L 38.953125 44.40625 L 39.042969 44.363281 L 39.578125 43.644531 L 39.328125 42.785156 Z M 48.128906 43.671875 L 47.246094 43.8125 L 46.832031 44.609375 L 46.890625 44.957031 L 46.921875 45.050781 L 47.566406 45.671875 L 48.453125 45.527344 L 48.863281 44.734375 L 48.808594 44.386719 L 48.773438 44.292969 Z M 34.773438 44.433594 L 34.449219 44.566406 L 34.363281 44.625 L 33.90625 45.390625 L 34.25 46.21875 L 35.117188 46.441406 L 35.441406 46.308594 L 35.527344 46.25 L 35.984375 45.484375 L 35.640625 44.65625 Z M 31.328125 46.738281 L 31.011719 46.890625 L 30.925781 46.945313 L 30.507813 47.738281 L 30.890625 48.546875 L 31.769531 48.726563 L 32.089844 48.574219 L 32.171875 48.515625 L 32.589844 47.722656 L 32.207031 46.917969 Z M 49.496094 47.558594 L 48.605469 47.671875 L 48.167969 48.453125 L 48.210938 48.800781 L 48.242188 48.894531 L 48.863281 49.539063 L 49.753906 49.425781 L 50.191406 48.644531 L 50.148438 48.296875 L 50.121094 48.199219 Z M 28.0625 49.347656 L 27.761719 49.53125 L 27.683594 49.59375 L 27.335938 50.421875 L 27.789063 51.191406 L 28.679688 51.292969 L 28.984375 51.113281 L 29.0625 51.046875 L 29.40625 50.222656 L 28.953125 49.449219 Z M 50.738281 51.484375 L 49.847656 51.570313 L 49.386719 52.335938 L 49.421875 52.6875 L 49.445313 52.78125 L 50.050781 53.445313 L 50.941406 53.359375 L 51.40625 52.59375 L 51.371094 52.238281 L 51.34375 52.144531 Z M 25.007813 52.234375 L 24.726563 52.449219 L 24.65625 52.519531 L 24.40625 53.378906 L 24.9375 54.097656 L 25.835938 54.097656 L 26.117188 53.886719 L 26.1875 53.8125 L 26.4375 52.953125 L 25.90625 52.234375 Z M 23.125 55.277344 L 22.230469 55.34375 L 21.964844 55.578125 L 21.902344 55.65625 L 21.714844 56.53125 L 22.300781 57.203125 L 23.195313 57.140625 L 23.460938 56.90625 L 23.523438 56.828125 L 23.710938 55.953125 Z M 51.863281 55.441406 L 50.96875 55.503906 L 50.484375 56.261719 L 50.511719 56.609375 L 50.535156 56.707031 L 51.121094 57.386719 L 52.015625 57.324219 L 52.5 56.566406 L 52.472656 56.21875 L 52.449219 56.121094 Z M 20.585938 58.515625 L 19.699219 58.628906 L 19.441406 58.875 L 19.386719 58.953125 L 19.242188 59.839844 L 19.863281 60.484375 L 20.753906 60.371094 L 21.007813 60.125 L 21.066406 60.046875 L 21.207031 59.160156 Z M 52.871094 59.433594 L 51.972656 59.472656 L 51.472656 60.214844 L 51.488281 60.566406 L 51.511719 60.664063 L 52.078125 61.359375 L 52.972656 61.3125 L 53.476563 60.574219 L 53.460938 60.21875 L 53.4375 60.125 Z M 53.757813 63.449219 L 52.859375 63.46875 L 52.34375 64.203125 L 52.351563 64.550781 L 52.371094 64.652344 L 52.925781 65.355469 L 53.820313 65.332031 L 54.339844 64.605469 L 54.328125 64.25 L 54.3125 64.152344 Z"/></svg>