<svg width="68" height="53" viewBox="0 0 68 53" fill="none" xmlns="http://www.w3.org/2000/svg">
<path d="M66 9.35V43.65C66 45.5993 65.222 47.4688 63.8371 48.8472C62.4522 50.2256 60.5739 51 58.6154 51H9.38462C7.42609 51 5.54779 50.2256 4.1629 48.8472C2.77802 47.4688 2 45.5993 2 43.65V9.35M66 9.35C66 7.40066 65.222 5.53116 63.8371 4.15277C62.4522 2.77437 60.5739 2 58.6154 2H9.38462C7.42609 2 5.54779 2.77437 4.1629 4.15277C2.77802 5.53116 2 7.40066 2 9.35M66 9.35V10.1438C66.0001 11.3987 65.6775 12.6327 65.0628 13.7283C64.448 14.8239 63.5617 15.7446 62.4882 16.4027L37.8728 31.4784C36.7084 32.1923 35.3676 32.5703 34 32.5703C32.6324 32.5703 31.2916 32.1923 30.1272 31.4784L5.51179 16.406C4.4383 15.7479 3.55198 14.8272 2.93725 13.7316C2.32252 12.636 1.99986 11.4019 2 10.1471V9.35" stroke="black" stroke-width="4" stroke-linecap="round" stroke-linejoin="round"/>
</svg>
